HIERARCHY
ROOT root
{
	OFFSET	0	13.1	24.9
	CHANNELS 6  Xposition Yposition Zposition Xrotation Yrotation Zrotation
	JOINT spine_1
	{
		OFFSET	0	9.99999	0
		CHANNELS 3  Xrotation Yrotation Zrotation
		JOINT spine_2
		{
			OFFSET	0	112	-10
			CHANNELS 3  Xrotation Yrotation Zrotation
			JOINT spine_3
			{
				OFFSET	0	206.5	19.3
				CHANNELS 3  Xrotation Yrotation Zrotation
				JOINT spine_4
				{
					OFFSET	0	110.4	14.6
					CHANNELS 3  Xrotation Yrotation Zrotation
					JOINT neck_1
					{
						OFFSET	0	71.8	-50.3
						CHANNELS 3  Xrotation Yrotation Zrotation
						JOINT neck_2
						{
							OFFSET	0	86.2	-25.8
							CHANNELS 3  Xrotation Yrotation Zrotation
							JOINT head_ee
							{
								OFFSET	0	179.8	-8.7
								CHANNELS 3  Xrotation Yrotation Zrotation
								End Site
								{
									OFFSET	1	0	0
								}
							}
						}
					}
					JOINT left_clavicle
					{
						OFFSET	-43.2	22.4	-70.8
						CHANNELS 3  Xrotation Yrotation Zrotation
						JOINT left_shoulder
						{
							OFFSET	-93.9	-5.79999	48.7
							CHANNELS 3  Xrotation Yrotation Zrotation
							JOINT left_elbow
							{
								OFFSET	-291.4	-30.8	15.2
								CHANNELS 3  Xrotation Yrotation Zrotation
								JOINT left_lowarm_twist
								{
									OFFSET	-110.7	-3.89999	13.6
									CHANNELS 3  Xrotation Yrotation Zrotation
									JOINT left_hand
									{
										OFFSET	-110.7	-3.89999	13.6
										CHANNELS 3  Xrotation Yrotation Zrotation
										JOINT left_ee
										{
											OFFSET	-80.8	-5.10001	12.1
											CHANNELS 3  Xrotation Yrotation Zrotation
											End Site
											{
												OFFSET	1	0	0
											}
										}
									}
								}
							}
						}
					}
					JOINT right_clavicle
					{
						OFFSET	43.2	22.4	-70.8
						CHANNELS 3  Xrotation Yrotation Zrotation
						JOINT right_shoulder
						{
							OFFSET	93.9	-5.79999	48.7
							CHANNELS 3  Xrotation Yrotation Zrotation
							JOINT right_elbow
							{
								OFFSET	291.4	-30.8	15.2
								CHANNELS 3  Xrotation Yrotation Zrotation
								JOINT right_lowarm_twist
								{
									OFFSET	110.7	-3.89999	13.6
									CHANNELS 3  Xrotation Yrotation Zrotation
									JOINT right_hand
									{
										OFFSET	110.7	-3.89999	13.6
										CHANNELS 3  Xrotation Yrotation Zrotation
										JOINT right_ee
										{
											OFFSET	80.8	-5.10001	12.1
											CHANNELS 3  Xrotation Yrotation Zrotation
											End Site
											{
												OFFSET	1	0	0
											}
										}
									}
								}
							}
						}
					}
				}
			}
		}
	}
	JOINT left_hip
	{
		OFFSET	-82.8	-127.5	0.300001
		CHANNELS 3  Xrotation Yrotation Zrotation
		JOINT left_knee
		{
			OFFSET	-28.2	-396.7	2.2
			CHANNELS 3  Xrotation Yrotation Zrotation
			JOINT left_ankle
			{
				OFFSET	-11.7	-411.3	35.4
				CHANNELS 3  Xrotation Yrotation Zrotation
				JOINT left_toes
				{
					OFFSET	0	-60	-88.6
					CHANNELS 3  Xrotation Yrotation Zrotation
					JOINT left_foot_ee
					{
						OFFSET	-22.5	-16.5	-42.2
						CHANNELS 3  Xrotation Yrotation Zrotation
						End Site
						{
							OFFSET	1	0	0
						}
					}
				}
			}
		}
	}
	JOINT right_hip
	{
		OFFSET	82.8	-127.5	0.300001
		CHANNELS 3  Xrotation Yrotation Zrotation
		JOINT right_knee
		{
			OFFSET	28.2	-396.7	2.2
			CHANNELS 3  Xrotation Yrotation Zrotation
			JOINT right_ankle
			{
				OFFSET	11.7	-411.3	35.4
				CHANNELS 3  Xrotation Yrotation Zrotation
				JOINT right_toes
				{
					OFFSET	0	-60	-88.6
					CHANNELS 3  Xrotation Yrotation Zrotation
					JOINT right_foot_ee
					{
						OFFSET	22.5	-16.5	-42.2
						CHANNELS 3  Xrotation Yrotation Zrotation
						End Site
						{
							OFFSET	1	0	0
						}
					}
				}
			}
		}
	}
}
MOTION
Frames: 8
Frame Time: 0.02
1372.05 701.618 -1475.22 -13.9819226031 15.9043205567 -1.15953661699 4.15134 0.689727 2.75616 4.15542 0.513018 2.79443 4.1779 0.121668 2.83849 4.16711 0.568252 2.78373 -6.34933 8.35487 -3.96654 -6.25696 18.3637 -2.38639 -0.0 0.0 -0.0 1.68972 8.93133 4.0116 -4.33079 -19.5621 53.6949 2.02849 -45.1336 0.843074 -7.38038 -0.317745 0.887737 -1.22831 4.50619 -6.2067 -0.0 0.0 -0.0 10.4027 15.2283 -20.5806 -29.5551 30.3264 -68.27 0.389787 10.9289 -0.0372883 -4.51189 0.180657 -0.547564 -1.70925 -9.92215 6.85873 0.0 0.0 0.0 7.42247 17.4675 5.99024 -25.5767 0.187918 3.88801 23.6921 -0.842057 -3.20592 22.6468 -0.0 -0.0 -0.0 0.0 -0.0 42.4256 -7.58247 -1.64035 -0.0302695 -0.00124543 -0.00447817 31.4997 -13.4141 4.08042 -25.7775 0.0 0.0 0.0 0.0 0.0 
1360.47791429 702.732 -1494.86759101 -14.4186671599 16.5504139389 -0.880275507733 4.07392 0.600152 2.87773 4.07843 0.415898 2.91005 4.09684 0.0052001 2.93959 4.08509 0.469189 2.90194 -4.85406 5.99012 -5.12383 -4.69901 14.8548 -4.22674 -0.0 0.0 -0.0 1.60471 11.2451 4.04838 -5.52751 -19.2849 54.8716 2.06403 -45.6309 0.86837 -7.95594 -0.347298 0.955154 -1.07837 4.3454 -5.28684 -0.0 0.0 -0.0 10.5551 15.3237 -20.9175 -28.812 30.8029 -68.1197 0.393655 11.0347 -0.0380252 -4.77407 0.192476 -0.578932 -1.64166 -9.11216 6.80207 0.0 0.0 0.0 6.31093 15.8664 6.75995 -23.9734 0.227347 3.64512 22.2732 -0.979928 -3.03716 21.0029 -0.0 -0.0 -0.0 0.0 -0.0 42.9792 -8.47809 -2.08699 -0.683969 -0.0275586 -0.101345 27.4684 -15.2165 3.65437 -25.7404 0.0 0.0 0.0 0.0 0.0 
1349.31138429 698.69 -1526.41219233 -13.2609895601 17.7147914839 -1.2746650063 4.08119 0.670753 2.78499 4.08537 0.49225 2.82199 4.1071 0.0937212 2.86303 4.09607 0.544527 2.81238 -4.28516 7.09749 -4.15105 -4.13192 16.1488 -3.12369 -0.0 0.0 -0.0 1.35401 12.8235 3.75566 -8.34802 -19.0026 54.7738 1.96128 -44.1688 0.795838 -8.52573 -0.377222 1.0216 -0.614209 3.1877 -2.72472 -0.0 0.0 -0.0 10.8164 16.0976 -21.4697 -29.4513 31.477 -67.6661 0.402577 11.2785 -0.0397515 -5.1983 0.211905 -0.629574 -1.43653 -7.79578 6.07873 0.0 0.0 0.0 7.85897 13.0308 5.79286 -31.3442 -0.00976141 4.75069 24.0778 3.17049 -3.22937 22.2359 -0.0 -0.0 -0.0 0.0 -0.0 41.3835 -8.07721 -0.913786 -4.14267 -0.148261 -0.618349 27.8701 -12.9766 3.6805 -23.9974 0.0 0.0 0.0 0.0 0.0 
1349.8849086 698.69 -1526.66311347 -13.215028209 17.0914774383 -1.42833174817 4.08119 0.670753 2.78499 4.08537 0.49225 2.82199 4.1071 0.0937212 2.86303 4.09607 0.544527 2.81238 -4.28516 7.09749 -4.15105 -4.13192 16.1488 -3.12369 -0.0 0.0 -0.0 1.35401 12.8235 3.75566 -8.34802 -19.0026 54.7738 1.96128 -44.1688 0.795838 -8.52573 -0.377222 1.0216 -0.614209 3.1877 -2.72472 -0.0 0.0 -0.0 10.8164 16.0976 -21.4697 -29.4513 31.477 -67.6661 0.402577 11.2785 -0.0397515 -5.1983 0.211905 -0.629574 -1.43653 -7.79578 6.07873 0.0 0.0 0.0 7.85897 13.0308 5.79286 -31.3442 -0.00976141 4.75069 24.0778 3.17049 -3.22937 22.2359 -0.0 -0.0 -0.0 0.0 -0.0 41.3835 -8.07721 -0.913786 -4.14267 -0.148261 -0.618349 27.8701 -12.9766 3.6805 -23.9974 0.0 0.0 0.0 0.0 0.0 
1350.52167361 698.69 -1526.9328259 -13.1664569348 16.4027934409 -1.59689199746 4.08119 0.670753 2.78499 4.08537 0.49225 2.82199 4.1071 0.0937212 2.86303 4.09607 0.544527 2.81238 -4.28516 7.09749 -4.15105 -4.13192 16.1488 -3.12369 -0.0 0.0 -0.0 1.35401 12.8235 3.75566 -8.34802 -19.0026 54.7738 1.96128 -44.1688 0.795838 -8.52573 -0.377222 1.0216 -0.614209 3.1877 -2.72472 -0.0 0.0 -0.0 10.8164 16.0976 -21.4697 -29.4513 31.477 -67.6661 0.402577 11.2785 -0.0397515 -5.1983 0.211905 -0.629574 -1.43653 -7.79578 6.07873 0.0 0.0 0.0 7.85897 13.0308 5.79286 -31.3442 -0.00976141 4.75069 24.0778 3.17049 -3.22937 22.2359 -0.0 -0.0 -0.0 0.0 -0.0 41.3835 -8.07721 -0.913786 -4.14267 -0.148261 -0.618349 27.8701 -12.9766 3.6805 -23.9974 0.0 0.0 0.0 0.0 0.0 
1336.02062508 706.027 -1553.48274109 -12.4336221997 18.4879536422 -1.42735501029 4.18038 0.528662 2.70888 4.18439 0.355284 2.737 4.19883 -0.0257864 2.75983 4.18843 0.410236 2.72931 -4.48965 6.47381 -5.08573 -4.3167 15.7155 -4.16062 -0.0 0.0 -0.0 1.33091 14.5256 3.85776 -11.8622 -19.2139 56.047 1.81312 -41.9251 0.694682 -10.4822 -0.484984 1.24746 -0.727909 2.22521 -3.89685 -0.0 0.0 -0.0 10.9654 12.9812 -21.9158 -30.2595 34.2697 -65.0892 0.393113 11.0199 -0.0379215 -5.92821 0.246211 -0.716371 -1.16208 -5.08942 5.50695 0.0 0.0 0.0 8.90944 11.2264 5.97687 -35.4615 -0.203559 5.35255 24.4836 6.33007 -3.27071 21.3794 -0.0 -0.0 -0.0 0.0 -0.0 40.2067 -7.70481 1.26211 -10.9924 -0.294237 -1.65874 26.8752 -12.8054 3.56668 -20.8628 0.0 0.0 0.0 0.0 0.0 
1338.01770846 706.027 -1554.37159905 -12.3336536853 17.0680509518 -1.75474073133 4.18038 0.528662 2.70888 4.18439 0.355284 2.737 4.19883 -0.0257864 2.75983 4.18843 0.410236 2.72931 -4.48965 6.47381 -5.08573 -4.3167 15.7155 -4.16062 -0.0 0.0 -0.0 1.33091 14.5256 3.85776 -11.8622 -19.2139 56.047 1.81312 -41.9251 0.694682 -10.4822 -0.484984 1.24746 -0.727909 2.22521 -3.89685 -0.0 0.0 -0.0 10.9654 12.9812 -21.9158 -30.2595 34.2697 -65.0892 0.393113 11.0199 -0.0379215 -5.92821 0.246211 -0.716371 -1.16208 -5.08942 5.50695 0.0 0.0 0.0 8.90944 11.2264 5.97687 -35.4615 -0.203559 5.35255 24.4836 6.33007 -3.27071 21.3794 -0.0 -0.0 -0.0 0.0 -0.0 40.2067 -7.70481 1.26211 -10.9924 -0.294237 -1.65874 26.8752 -12.8054 3.56668 -20.8628 0.0 0.0 0.0 0.0 0.0 
1320.45680889 713.201 -1577.81820871 -11.1722121518 18.2365278933 -2.42864179942 3.95903 0.482771 2.84863 3.96349 0.300604 2.87355 3.97603 -0.110101 2.88712 3.96457 0.347056 2.86831 -4.68435 5.90202 -5.95612 -4.48848 15.3222 -5.12477 -0.0 0.0 -0.0 1.30204 15.9874 3.93007 -14.4836 -19.0844 56.9703 1.6844 -39.8384 0.610421 -11.8675 -0.565933 1.40513 -0.798701 1.49457 -4.6874 -0.0 0.0 -0.0 10.9803 10.8386 -21.9871 -30.9216 36.2201 -63.0543 0.398967 11.1799 -0.0390484 -6.53839 0.275738 -0.788594 -0.969266 -2.95948 5.17888 0.0 0.0 0.0 9.88939 9.6464 6.22008 -38.4213 -0.369401 5.77601 24.821 8.72539 -3.31205 20.7607 -0.0 -0.0 -0.0 0.0 -0.0 38.7574 -7.49678 3.00536 -15.2939 -0.321998 -2.31798 25.33 -12.85 3.38876 -18.7381 0.0 0.0 0.0 0.0 0.0 
